Coordinates
version=1
nRows=13
nColumns=38
inDegrees=no

Units are S.I. units (second, meters, Newtons, ...)
If the header above contains a line with 'inDegrees', this indicates whether rotational values are in degrees (yes) or radians (no).

endheader
time	pelvis_tilt	pelvis_list	pelvis_rotation	pelvis_tx	pelvis_ty	pelvis_tz	hip_flexion_r	hip_adduction_r	hip_rotation_r	knee_angle_r	ankle_angle_r	subtalar_angle_r	mtp_angle_r	hip_flexion_l	hip_adduction_l	hip_rotation_l	knee_angle_l	ankle_angle_l	subtalar_angle_l	mtp_angle_l	lumbar_extension	lumbar_bending	lumbar_rotation	arm_flex_r	arm_add_r	arm_rot_r	elbow_flex_r	pro_sup_r	wrist_flex_r	wrist_dev_r	arm_flex_l	arm_add_l	arm_rot_l	elbow_flex_l	pro_sup_l	wrist_flex_l	wrist_dev_l
1.12	-1.47267	1.49557	0.0586986	0.949742	0.0262731	0.940095	0.366988	0.00818835	-0.36247	0.439793	0.0697501	0	0	0.116587	-0.130418	0.023801	1.2133	-0.249876	0	0	0.0121293	0.121839	-0.215903	-0.0912671	-0.141872	0.0895525	0.246735	1.08259	0	0	-0.17131	-0.527384	0.666094	0.741912	0.700077	0	0
1.13	-1.44391	1.49831	0.0271841	0.948731	0.0150515	0.942759	0.346533	0.0115187	-0.356494	0.429803	0.0724459	0	0	0.143854	-0.125586	0.028176	1.24526	-0.221842	0	0	0.00778332	0.121527	-0.20983	-0.0811587	-0.133865	-0.00164917	0.228625	1.19019	0	0	-0.169368	-0.528952	0.666697	0.745637	0.701605	0	0
1.14	-1.4142	1.50154	-0.00542235	0.947717	0.00398325	0.945317	0.325757	0.013714	-0.35246	0.418549	0.0746105	0	0	0.171015	-0.119776	0.031858	1.27241	-0.196555	0	0	0.00378307	0.120509	-0.20514	-0.080145	-0.135723	0.00380395	0.23104	1.18172	0	0	-0.168593	-0.529934	0.664513	0.74941	0.702564	0	0
1.15	-1.39258	1.50509	-0.0301612	0.946646	-0.00694969	0.947684	0.305209	0.0153905	-0.350718	0.406422	0.0773589	0	0	0.198595	-0.113087	0.03564	1.2947	-0.175122	0	0	0.000442233	0.118847	-0.200258	-0.0794765	-0.138099	0.011472	0.23351	1.17168	0	0	-0.167294	-0.531095	0.663015	0.752567	0.703429	0	0
1.16	-1.38332	1.50849	-0.0430706	0.945462	-0.0177723	0.949825	0.285308	0.0177362	-0.349234	0.392452	0.0791348	0	0	0.226811	-0.106862	0.0383156	1.31236	-0.157645	0	0	-0.00207397	0.117099	-0.194885	-0.0789472	-0.140905	0.0206742	0.235636	1.15985	0	0	-0.165971	-0.532451	0.661701	0.755055	0.706419	0	0
1.17	-1.38673	1.51173	-0.0443589	0.944155	-0.0284871	0.951716	0.266066	0.0207943	-0.347391	0.377045	0.0805176	0	0	0.255322	-0.101373	0.0393286	1.32561	-0.142943	0	0	-0.00406039	0.115419	-0.188425	-0.0789396	-0.144389	0.0314057	0.238711	1.14604	0	0	-0.16474	-0.533844	0.659935	0.757419	0.711208	0	0
1.18	-1.39935	1.51505	-0.0378828	0.942759	-0.0391026	0.953404	0.247697	0.0240233	-0.344801	0.361747	0.0819461	0	0	0.283369	-0.0961495	0.0387342	1.33432	-0.130028	0	0	-0.0061117	0.113679	-0.179443	-0.0748562	-0.143799	-0.00623982	0.232087	1.19098	0	0	-0.161763	-0.536062	0.662571	0.76065	0.705556	0	0
1.19	-1.39923	1.5182	-0.045386	0.941307	-0.0497148	0.955013	0.228587	0.0276801	-0.339863	0.346126	0.0830613	0	0	0.309137	-0.0914302	0.036713	1.33806	-0.118562	0	0	-0.00903463	0.112064	-0.170069	-0.0732038	-0.146306	-0.0150964	0.230998	1.20238	0	0	-0.160152	-0.536774	0.659848	0.76252	0.709786	0	0
1.2	-1.37107	1.52108	-0.0812559	0.939834	-0.0604014	0.956579	0.206772	0.0317869	-0.33374	0.328811	0.0847979	0	0	0.331954	-0.0871787	0.0341537	1.33706	-0.107839	0	0	-0.0128391	0.110347	-0.162955	-0.0802686	-0.158859	0.0777784	0.250603	1.09032	0	0	-0.162328	-0.535666	0.647899	0.762917	0.729203	0	0
1.21	-1.32473	1.52471	-0.136404	0.938281	-0.0710665	0.958057	0.185277	0.0346941	-0.325628	0.313286	0.087389	0	0	0.352613	-0.0821585	0.0301312	1.3314	-0.0969965	0	0	-0.0187065	0.107553	-0.150214	-0.0668908	-0.149443	-0.0563764	0.222839	1.25288	0	0	-0.158505	-0.536422	0.648569	0.762984	0.738432	0	0
1.22	-1.25773	1.52918	-0.213392	0.936742	-0.0816163	0.959378	0.16595	0.0354117	-0.315837	0.302479	0.0916224	0	0	0.371596	-0.0761317	0.0245831	1.32181	-0.0842498	0	0	-0.0240228	0.103378	-0.140278	-0.0746848	-0.161225	0.0349291	0.242582	1.14188	0	0	-0.158233	-0.537195	0.649113	0.763596	0.736299	0	0
1.23	-1.17229	1.53397	-0.308614	0.935223	-0.0921454	0.960539	0.148097	0.0346945	-0.305563	0.294364	0.096345	0	0	0.389617	-0.0695405	0.0188539	1.30856	-0.069038	0	0	-0.0296353	0.0983479	-0.129296	-0.072627	-0.162934	0.020558	0.240428	1.15782	0	0	-0.156572	-0.537426	0.647032	0.763605	0.740342	0	0
1.24	-1.0664	1.53861	-0.423922	0.93375	-0.102646	0.961506	0.130759	0.0334265	-0.294803	0.286474	0.100814	0	0	0.406791	-0.0622583	0.0138017	1.2917	-0.0527182	0	0	-0.0347588	0.0928806	-0.119439	-0.0706725	-0.164542	0.00707249	0.23859	1.17233	0	0	-0.155856	-0.537276	0.642208	0.763529	0.744022	0	0
